<svg width="60" height="72" viewBox="0 0 60 72" fill="none" xmlns="http://www.w3.org/2000/svg">
<g id="Frame 427319251">
<g id="Group">
<path id="Vector" d="M14.0743 29.4006C11.2645 25.9452 8.62578 25.2034 6.15833 27.1752C2.45722 30.1327 1.39427 40.4419 4.37266 49.5318C7.35114 58.6217 13.1426 71.0002 24.8341 71.0002C36.5257 71.0002 39.2912 58.546 44.0609 51.0162C48.8306 43.4864 51.3541 36.2219 46.679 27.1752" stroke="black" stroke-width="2" stroke-linecap="round" stroke-linejoin="round"/>
<path id="Vector_2" d="M8.20679 26.101C5.37123 21.7815 3.15109 18.431 1.54629 16.0492C-0.860886 12.4766 5.29463 7.85932 8.20679 11.0004C10.1481 13.0945 12.7272 16.1788 15.9439 20.2533" stroke="black" stroke-width="2" stroke-linecap="round"/>
<path id="Vector_3" d="M14.9117 38.7601C14.105 28.6634 14.7614 22.089 16.8809 19.0371C20.0601 14.4593 25.9672 12.7236 31.5294 12.7236C34.8411 12.7236 37.8654 14.1341 40.6025 16.9552" stroke="black" stroke-width="2" stroke-linecap="round" stroke-linejoin="round"/>
<path id="Vector_4" d="M58.1603 17.0692C59.1352 20.46 57.5427 23.5579 52.639 24.2594C47.735 24.9611 44.0585 27.427 41.4068 29.5014C38.7551 31.5756 34.0129 37.8694 33.0768 41.0292C32.1405 44.1891 26.7895 41.283 25.3523 40.0215C23.9152 38.7599 22.5023 35.9978 25.3523 33.109C28.2022 30.2202 27.5856 29.6437 27.5856 26.7141C27.5856 23.7847 43.1743 14.0944 51.9538 13.2083C53.9053 13.0944 57.1852 13.6783 58.1603 17.0692Z" stroke="black" stroke-width="2"/>
<path id="Vector_5" d="M28.1875 2.72949V11.4925" stroke="black" stroke-width="2" stroke-linecap="round"/>
<path id="Vector_6" d="M23.7018 13.9162C18.6769 7.60132 14.6252 4.07687 11.5469 3.34277" stroke="black" stroke-width="2" stroke-linecap="round"/>
<path id="Vector_7" d="M18.2109 7.77261L19.8602 1" stroke="black" stroke-width="2" stroke-linecap="round"/>
<path id="Vector_8" d="M49.1994 13.9131C48.6627 15.7522 48.6627 17.4766 49.1994 19.0861C49.7359 20.6957 50.8856 22.4201 52.6485 24.2592" stroke="black" stroke-width="2" stroke-linecap="round"/>
</g>
</g>
</svg>
