<svg width="35" height="34" viewBox="0 0 35 34" fill="none" xmlns="http://www.w3.org/2000/svg">
<g id="fluent:pulse-32-regular">
<path id="Vector" d="M12.865 5.31271C13.094 5.31736 13.3154 5.39591 13.4962 5.53664C13.6769 5.67737 13.8073 5.87275 13.868 6.09365L18.7321 23.78L22.4509 11.3828C22.5137 11.1728 22.64 10.9874 22.8123 10.852C22.9846 10.7166 23.1946 10.6378 23.4135 10.6264C23.6323 10.615 23.8494 10.6716 24.0348 10.7883C24.2203 10.9051 24.3651 11.0764 24.4494 11.2786L26.8337 17.0002H30.375C30.6568 17.0002 30.927 17.1122 31.1263 17.3114C31.3256 17.5107 31.4375 17.7809 31.4375 18.0627C31.4375 18.3445 31.3256 18.6148 31.1263 18.814C30.927 19.0133 30.6568 19.1252 30.375 19.1252H26.125C25.9153 19.1252 25.7103 19.0632 25.5358 18.9469C25.3613 18.8306 25.225 18.6653 25.1443 18.4718L23.6313 14.8412L19.7054 27.9312C19.639 28.152 19.5026 28.3453 19.3168 28.4818C19.1309 28.6183 18.9057 28.6906 18.6751 28.6879C18.4445 28.6851 18.2211 28.6074 18.0386 28.4665C17.856 28.3256 17.7243 28.1291 17.6632 27.9068L12.7694 10.1131L10.1376 18.3846C10.0692 18.5996 9.93428 18.7872 9.75224 18.9203C9.5702 19.0535 9.35053 19.1252 9.125 19.1252H4.875C4.59321 19.1252 4.32296 19.0133 4.1237 18.814C3.92444 18.6148 3.8125 18.3445 3.8125 18.0627C3.8125 17.7809 3.92444 17.5107 4.1237 17.3114C4.32296 17.1122 4.59321 17.0002 4.875 17.0002H8.34831L11.8312 6.05327C11.9006 5.83485 12.0388 5.64471 12.2251 5.51125C12.4114 5.37778 12.6359 5.30814 12.865 5.31271Z" fill="black"/>
</g>
</svg>
